<svg width="24" height="24" viewBox="0 0 24 24" fill="none" xmlns="http://www.w3.org/2000/svg">
<g clip-path="url(#clip0_210_336)">
<path d="M1.11674 4.67996C0.500184 4.67996 0 5.17988 0 5.7967V18.6352C0 19.2519 0.500256 19.752 1.11674 19.752H22.8833C23.4998 19.752 24 19.252 24 18.6352V5.79668C24 5.17995 23.4998 4.67993 22.8833 4.67993H1.11672L1.11674 4.67996ZM7.86974 6.49421C9.23969 6.49421 10.4979 6.97083 11.4855 7.76696C10.6546 8.51045 10.0348 9.48728 9.729 10.5945H10.2083C10.4905 9.68108 11.0032 8.86786 11.679 8.22296C12.3548 8.86786 12.8675 9.68108 13.1497 10.5945H13.6365C13.3265 9.49311 12.7058 8.52212 11.8755 7.78347C12.865 6.97724 14.1282 6.49419 15.504 6.49419C18.679 6.49419 21.2527 9.06824 21.2527 12.2437C21.2527 15.4192 18.679 17.9932 15.504 17.9932C14.1053 17.9932 12.8227 17.494 11.826 16.6634C12.7176 15.8878 13.3749 14.8479 13.6755 13.665H13.2067C12.9398 14.6578 12.4026 15.5409 11.679 16.2315C10.9554 15.5409 10.4189 14.6578 10.152 13.665H9.70572C10.0081 14.8308 10.6568 15.8561 11.535 16.6245C10.5401 17.4447 9.26256 17.9377 7.86972 17.9377C4.69476 17.9377 2.121 15.376 2.121 12.216C2.121 9.05588 4.69476 6.49421 7.86974 6.49421ZM15.0727 10.536C14.382 10.536 13.71 11.1398 13.71 12.2737C13.71 13.0256 14.073 13.5217 14.787 13.5217C14.9889 13.5218 15.3105 13.4392 15.3105 13.4392L15.417 12.7822C15.417 12.7822 15.1235 12.9307 14.922 12.9307C14.4976 12.9307 14.3273 12.6043 14.3273 12.2535C14.3273 11.5418 14.6924 11.1502 15.099 11.1502C15.4039 11.1502 15.6487 11.3227 15.6487 11.3227L15.7463 10.6837C15.7463 10.6837 15.3838 10.536 15.0727 10.536ZM20.88 10.5915L20.2793 10.593L20.1503 11.3835C20.1503 11.3835 19.9244 11.0767 19.5713 11.0767C19.0221 11.0767 18.5647 11.729 18.5647 12.4792C18.5647 12.9635 18.8082 13.4384 19.3073 13.4384C19.6662 13.4384 19.8653 13.1917 19.8653 13.1917L19.839 13.4024H20.4225L20.88 10.5915ZM3.67349 10.5997L3.195 13.4174H3.77174L4.13626 11.2927L4.19026 13.4174H4.60274L5.37226 11.2927L5.031 13.4174H5.64374L6.11626 10.5997H5.16826L4.578 12.3284L4.54726 10.5997H3.67351L3.67349 10.5997ZM9.699 10.7827C9.68597 10.7958 9.35026 12.7317 9.35026 12.9674C9.35026 13.3165 9.54593 13.4725 9.82126 13.47C10.0185 13.4683 10.1713 13.4187 10.242 13.398C10.2494 13.396 10.2637 13.392 10.2637 13.392L10.338 12.888C10.2976 12.888 10.2382 12.9052 10.1857 12.9052C9.98018 12.9052 9.95741 12.7958 9.97049 12.7147L10.1363 11.6865H10.449L10.5247 11.1292H10.23L10.29 10.7827H9.699ZM16.6703 11.0662C16.2677 11.0662 15.9593 11.199 15.9593 11.199L15.8737 11.7165C15.8737 11.7165 16.1285 11.6107 16.5135 11.6107C16.7321 11.6107 16.8922 11.6357 16.8922 11.8177C16.8922 11.9282 16.8727 11.9692 16.8727 11.9692C16.8727 11.9692 16.6999 11.9542 16.62 11.9542C16.1124 11.9542 15.579 12.1767 15.579 12.846C15.579 13.3733 15.9291 13.494 16.146 13.494C16.5602 13.494 16.7388 13.2188 16.7483 13.218L16.7287 13.4475H17.2455L17.4765 11.7915C17.4766 11.0888 16.8781 11.0662 16.6703 11.0662V11.0662ZM6.97649 11.0692C6.57247 11.0692 6.26249 11.202 6.26249 11.202L6.177 11.7195C6.177 11.7195 6.4326 11.6137 6.819 11.6137C7.03841 11.6137 7.19926 11.6388 7.19926 11.8207C7.19926 11.9312 7.17974 11.9722 7.17974 11.9722C7.17974 11.9722 7.00639 11.9572 6.92626 11.9572C6.41666 11.9572 5.88151 12.1793 5.88151 12.8482C5.88151 13.3753 6.23234 13.4962 6.45 13.4962C6.8657 13.4962 7.04496 13.221 7.05451 13.2202L7.035 13.4497H7.554L7.78574 11.7945C7.78574 11.0922 7.1851 11.0692 6.97649 11.0692V11.0692ZM8.80949 11.0692C8.37564 11.0692 7.935 11.2443 7.935 11.8425C7.935 12.5202 8.66926 12.4517 8.66926 12.7372C8.66926 12.9277 8.46434 12.9435 8.30626 12.9435C8.03266 12.9435 7.78663 12.8489 7.78574 12.8535L7.707 13.371C7.72116 13.3753 7.87351 13.4437 8.36551 13.4437C8.49761 13.4437 9.25274 13.4773 9.25274 12.6907C9.25274 11.9554 8.55374 12.1011 8.55374 11.8057C8.55374 11.6586 8.66724 11.6122 8.87549 11.6122C8.95819 11.6122 9.27677 11.6385 9.27677 11.6385L9.35026 11.1157C9.35026 11.1158 9.14467 11.0692 8.80949 11.0692ZM11.5215 11.0692C10.9186 11.0693 10.4723 11.7176 10.4723 12.45C10.4723 13.2952 11.0315 13.4962 11.508 13.4962C11.9478 13.4962 12.1417 13.398 12.1417 13.398L12.2467 12.8212C12.2467 12.8212 11.9122 12.9682 11.61 12.9682C10.9662 12.9682 11.079 12.489 11.079 12.489H12.2977C12.2977 12.489 12.3765 12.1016 12.3765 11.9437C12.3765 11.5496 12.1798 11.0692 11.5215 11.0692ZM13.7048 11.094C13.4332 11.094 13.2315 11.4592 13.2315 11.4592L13.2855 11.124H12.7215L12.3428 13.4385H12.966C13.1425 12.4501 13.1748 11.6476 13.596 11.7945C13.6697 11.4119 13.7413 11.2641 13.8217 11.1022C13.8217 11.1022 13.784 11.094 13.7048 11.094ZM18.7545 11.094C18.4829 11.094 18.2813 11.4592 18.2813 11.4592L18.3353 11.124H17.7713L17.3925 13.4385H18.015C18.1916 12.4501 18.2246 11.6476 18.6457 11.7945C18.7196 11.4119 18.7911 11.2641 18.8715 11.1022C18.8715 11.1022 18.8337 11.094 18.7545 11.094ZM11.5185 11.5912C11.8609 11.5912 11.7983 11.9777 11.7983 12.009H11.124C11.124 11.9691 11.1878 11.5912 11.5185 11.5912ZM19.6658 11.6362C19.8837 11.6361 19.9958 11.7834 19.9958 12.1297C19.9958 12.444 19.8373 12.864 19.509 12.864C19.2911 12.864 19.1887 12.684 19.1887 12.402C19.1887 11.9407 19.3998 11.6362 19.6658 11.6362ZM16.671 12.4237C16.7599 12.4238 16.7783 12.4325 16.7933 12.4365C16.7911 12.4361 16.7907 12.4365 16.7993 12.438C16.8105 12.541 16.737 13.0245 16.3815 13.0245C16.1982 13.0245 16.1513 12.8787 16.1513 12.7927C16.1513 12.625 16.2386 12.4237 16.671 12.4237ZM6.97726 12.426C7.07822 12.4261 7.08924 12.4374 7.10626 12.4402C7.11754 12.5432 7.04371 13.026 6.687 13.026C6.50299 13.026 6.45526 12.8809 6.45526 12.795C6.45526 12.6273 6.5431 12.426 6.97726 12.426Z" fill="black"/>
</g>
<defs>
<clipPath id="clip0_210_336">
<rect width="24" height="24" fill="white"/>
</clipPath>
</defs>
</svg>
