<svg width="11" height="11" viewBox="0 0 11 11" fill="none" xmlns="http://www.w3.org/2000/svg">
<g clip-path="url(#clip0_131_340)">
<path d="M11 4.22813C11 4.32896 10.9427 4.43896 10.8281 4.55813L8.42849 6.99188L8.99699 10.4294C9.0014 10.4615 9.00361 10.5073 9.00361 10.5669C9.00361 10.6631 8.98047 10.7445 8.93419 10.8109C8.88792 10.8774 8.82071 10.9106 8.73257 10.9106C8.64884 10.9106 8.5607 10.8831 8.46815 10.8281L5.5 9.20563L2.53185 10.8281C2.4349 10.8831 2.34675 10.9106 2.26743 10.9106C2.17488 10.9106 2.10547 10.8774 2.05919 10.8109C2.01292 10.7445 1.98978 10.6631 1.98978 10.5669C1.98978 10.5394 1.99419 10.4935 2.003 10.4294L2.57151 6.99188L0.165264 4.55813C0.0550881 4.43438 0 4.32438 0 4.22813C0 4.05854 0.123397 3.95313 0.370192 3.91188L3.6887 3.41L5.17608 0.281875C5.25982 0.0939583 5.36779 0 5.5 0C5.63221 0 5.74018 0.0939583 5.82392 0.281875L7.3113 3.41L10.6298 3.91188C10.8766 3.95313 11 4.05854 11 4.22813Z" fill="black"/>
</g>
<defs>
<clipPath id="clip0_131_340">
<rect width="11" height="11" fill="white"/>
</clipPath>
</defs>
</svg>
