<svg width="24" height="24" viewBox="0 0 24 24" fill="none" xmlns="http://www.w3.org/2000/svg">
<g clip-path="url(#clip0_210_326)">
<path d="M7.01608 19.198H2.81608C2.73484 19.198 2.65457 19.1804 2.5808 19.1463C2.50703 19.1123 2.44151 19.0627 2.38875 19.0009C2.336 18.9391 2.29727 18.8667 2.27523 18.7885C2.25319 18.7103 2.24836 18.6282 2.26108 18.548L5.09308 0.584C5.11879 0.421297 5.20169 0.2731 5.32689 0.166051C5.45209 0.0590025 5.61136 0.000123858 5.77608 0L12.9981 0C16.4151 0 18.9021 2.488 18.8441 5.5C18.8381 5.75 18.8171 6 18.7781 6.247C18.5298 7.84817 17.7175 9.3079 16.4876 10.3628C15.2578 11.4177 13.6914 11.9984 12.0711 12H8.74308C8.57857 11.9999 8.41944 12.0586 8.29439 12.1655C8.16934 12.2724 8.08659 12.4205 8.06108 12.583L7.73608 14.639L7.72308 14.722L7.03108 19.112L7.01608 19.198ZM19.7901 6.142C19.7801 6.229 19.7801 6.317 19.7671 6.403C19.4885 8.24262 18.5582 9.9209 17.1457 11.132C15.7333 12.3431 13.9327 13.0064 12.0721 13.001H9.00708L8.72408 14.796L8.71108 14.879L8.01908 19.269L7.88508 20.112L7.87108 20.2H6.86008L6.36308 23.35C6.35036 23.4302 6.35519 23.5123 6.37723 23.5905C6.39927 23.6687 6.438 23.7411 6.49075 23.8029C6.54351 23.8647 6.60903 23.9143 6.6828 23.9483C6.75657 23.9824 6.83684 24 6.91808 24H10.5301C10.8701 24 11.1601 23.751 11.2131 23.415L12.1651 17.384C12.1908 17.2213 12.2737 17.0731 12.3989 16.9661C12.5241 16.859 12.6834 16.8001 12.8481 16.8H14.9741C16.5943 16.7986 18.1607 16.2182 19.3905 15.1634C20.6204 14.1087 21.4328 12.6491 21.6811 11.048C21.9871 9.098 21.2141 7.304 19.7901 6.142Z" fill="black"/>
</g>
<defs>
<clipPath id="clip0_210_326">
<rect width="24" height="24" fill="white"/>
</clipPath>
</defs>
</svg>
