<svg width="24" height="24" viewBox="0 0 24 24" fill="none" xmlns="http://www.w3.org/2000/svg">
<path d="M7.38461 4.78883C6.43756 4.78871 5.49976 4.97514 4.62476 5.33747C3.74977 5.69981 2.95472 6.23095 2.28501 6.90058C1.6153 7.5702 1.08405 8.36518 0.721606 9.24013C0.359158 10.1151 0.172607 11.0529 0.172607 11.9999C0.172861 13.3704 0.563636 14.7124 1.29916 15.8687C2.03468 17.0251 3.08449 17.9479 4.32561 18.5291C5.56673 19.1103 6.94776 19.3258 8.30694 19.1503C9.66612 18.9748 10.9472 18.4157 12 17.5384C13.0528 18.4162 14.334 18.9757 15.6934 19.1515C17.0529 19.3272 18.4342 19.1118 19.6756 18.5306C20.9171 17.9493 21.9671 17.0263 22.7027 15.8697C23.4383 14.713 23.829 13.3707 23.829 11.9999C23.829 10.6292 23.4383 9.2868 22.7027 8.13015C21.9671 6.97349 20.9171 6.05046 19.6756 5.46922C18.4342 4.88797 17.0529 4.6726 15.6934 4.84833C14.334 5.02407 13.0528 5.58363 12 6.46144C10.7061 5.37851 9.07189 4.78627 7.38461 4.78883ZM16.6154 6.63498C18.038 6.6362 19.4019 7.2018 20.4079 8.20762C21.4139 9.21345 21.9798 10.5773 21.9812 11.9999C21.98 13.4226 21.4143 14.7868 20.4083 15.7928C19.4022 16.7988 18.0381 17.3645 16.6154 17.3657C15.3434 17.3657 14.1895 16.895 13.2692 16.1537C14.131 14.9399 14.5948 13.4885 14.5966 11.9999C14.5948 10.5113 14.131 9.0599 13.2692 7.84606C14.1895 7.1039 15.3434 6.63406 16.6154 6.63406V6.63498Z" fill="black"/>
</svg>
